<svg xmlns="http://www.w3.org/2000/svg" viewBox="0 0 1600 900"><defs><linearGradient id="b" x1="0" y1="0" x2="0" y2="1"><stop stop-color="#07080b"/><stop offset=".54" stop-color="#111115"/><stop offset="1" stop-color="#040406"/></linearGradient><radialGradient id="g"><stop stop-color="#b5a26b" stop-opacity=".2"/><stop offset="1" stop-color="#b5a26b" stop-opacity="0"/></radialGradient></defs><rect width="1600" height="900" fill="url(#b)"/><ellipse cx="800" cy="420" rx="540" ry="390" fill="url(#g)"/><path d="M0 730L800 600l800 130v170H0Z" fill="#0e0e12"/><path d="M530 700V90h540v610" fill="#08080a" stroke="#53535b" stroke-width="9"/><path d="M645 610V200q155-120 310 0v410" fill="#111116" stroke="#67645a" stroke-width="6"/><g stroke="#77746a" stroke-width="7" opacity=".56"><path d="M705 150v510M895 150v510"/><path d="M620 300h360M600 470h400"/></g><path d="M710 340q90-65 180 0l-28 135H738Z" fill="#29261f" stroke="#8c8060" stroke-width="8"/><path d="M800 472v95" stroke="#8c8060" stroke-width="12"/><circle cx="800" cy="578" r="18" fill="#a89466"/><path d="M785 340l30-100" stroke="#857b62" stroke-width="7"/><text x="70" y="92" fill="#b5ab8d" opacity=".22" font-size="29" font-family="serif" letter-spacing="10">THE TOWER WITHOUT A BELL</text></svg>
