<svg xmlns="http://www.w3.org/2000/svg" viewBox="0 0 1600 900">
<defs>
 <linearGradient id="bg" x1="0" y1="0" x2="0" y2="1"><stop stop-color="#090b0e"/><stop offset=".56" stop-color="#0d1519"/><stop offset="1" stop-color="#050608"/></linearGradient>
 <radialGradient id="glow"><stop stop-color="#77a7c1" stop-opacity=".35"/><stop offset="1" stop-color="#77a7c1" stop-opacity="0"/></radialGradient>
 <linearGradient id="floor" x1="0" y1="0" x2="0" y2="1"><stop stop-color="#242529"/><stop offset="1" stop-color="#090a0c"/></linearGradient>
 <filter id="blur"><feGaussianBlur stdDeviation="16"/></filter>
</defs>
<rect width="1600" height="900" fill="url(#bg)"/>
<ellipse cx="800" cy="470" rx="650" ry="330" fill="url(#glow)"/>
<path d="M0 680 L800 545 L1600 680 L1600 900 L0 900 Z" fill="url(#floor)" opacity=".9"/>
<g stroke="#5c5a54" stroke-opacity=".28" fill="none" stroke-width="3">
 <path d="M0 680 L800 545 L1600 680"/><path d="M150 900 L800 545 L1450 900"/><path d="M430 900 L800 545 L1170 900"/>
</g>
<circle cx="800" cy="610" r="140" fill="#5f9ab8" opacity=".09"/><path d="M690 680 h220 l-35 -110H725z" fill="#1e2426" stroke="#60747b"/><path d="M760 620 q40 -180 85 0 q-38 -35 -85 0" fill="#9fd4e5" opacity=".8"/><path d="M795 630 q20 -100 42 0" fill="#d2eef4"/>
<g opacity=".24" filter="url(#blur)"><ellipse cx="280" cy="710" rx="280" ry="55" fill="#ccd6ce"/><ellipse cx="1280" cy="740" rx="320" ry="65" fill="#ccd6ce"/></g>
<text x="70" y="90" fill="#bdb29b" opacity=".23" font-size="30" font-family="serif" letter-spacing="10">UNDYING EMBER</text>
</svg>