<svg xmlns="http://www.w3.org/2000/svg" viewBox="0 0 1600 900">
<defs><linearGradient id="b" x1="0" y1="0" x2="0" y2="1"><stop stop-color="#07090c"/><stop offset=".55" stop-color="#101216"/><stop offset="1" stop-color="#050608"/></linearGradient><radialGradient id="g"><stop stop-color="#b79a62" stop-opacity=".2"/><stop offset="1" stop-color="#b79a62" stop-opacity="0"/></radialGradient></defs><rect width="1600" height="900" fill="url(#b)"/><ellipse cx="800" cy="475" rx="650" ry="320" fill="url(#g)"/><path d="M0 690L800 555l800 135v210H0Z" fill="#111216"/><g fill="#101216" stroke="#565860" stroke-width="7"><path d="M90 650V210h370v440Z"/><path d="M1140 650V210h370v440Z"/></g><path d="M510 650V230h580v420" fill="#08090b" stroke="#61636a" stroke-width="9"/><path d="M650 650V330q150-140 300 0v320" fill="#191a1d" stroke="#777980" stroke-width="8"/><g stroke="#969078" stroke-width="11" opacity=".54"><path d="M690 360v290M745 330v320M800 318v332M855 330v320M910 360v290"/></g><circle cx="325" cy="450" r="82" fill="#0a0b0d" stroke="#756d59" stroke-width="8"/><circle cx="325" cy="450" r="22" fill="#2b2923"/><g stroke="#756d59" stroke-width="8"><path d="M325 368v164M243 450h164M267 392l116 116M383 392L267 508"/></g><text x="68" y="92" fill="#b9ae91" opacity=".22" font-size="29" font-family="serif" letter-spacing="10">THE BROKEN CROWN GATE</text></svg>
