<svg xmlns="http://www.w3.org/2000/svg" viewBox="0 0 1600 900">
<defs><linearGradient id="b" x1="0" y1="0" x2="0" y2="1"><stop stop-color="#080d0d"/><stop offset=".58" stop-color="#121918"/><stop offset="1" stop-color="#060807"/></linearGradient><radialGradient id="g"><stop stop-color="#86b5a1" stop-opacity=".22"/><stop offset="1" stop-color="#86b5a1" stop-opacity="0"/></radialGradient><filter id="blur"><feGaussianBlur stdDeviation="18"/></filter></defs>
<rect width="1600" height="900" fill="url(#b)"/><ellipse cx="795" cy="470" rx="630" ry="340" fill="url(#g)"/><path d="M0 680L800 545l800 135v220H0Z" fill="#111716"/><g fill="#171f1d" stroke="#50685f" stroke-opacity=".45" stroke-width="5"><path d="M130 650V255h260v395Z"/><path d="M1210 650V255h260v395Z"/></g><g fill="#0b100f" stroke="#738d80" stroke-opacity=".45"><rect x="178" y="335" width="164" height="34"/><rect x="178" y="420" width="164" height="34"/><rect x="1258" y="335" width="164" height="34"/><rect x="1258" y="420" width="164" height="34"/></g><path d="M620 650V260q180-135 360 0v390" fill="#0a0e0d" stroke="#596b65" stroke-width="7"/><path d="M750 590V400h100v190" fill="#1c2622" stroke="#789183"/><g stroke="#adcbb7" opacity=".58" stroke-width="9"><path d="M785 338h30M800 323v30"/></g><g fill="#d8d0a7" opacity=".55"><circle cx="244" cy="512" r="5"/><circle cx="310" cy="520" r="4"/><circle cx="1290" cy="525" r="5"/></g><g opacity=".18" filter="url(#blur)" fill="#b6d4c7"><ellipse cx="300" cy="720" rx="260" ry="60"/><ellipse cx="1310" cy="730" rx="260" ry="55"/></g><text x="70" y="92" fill="#a8c0b3" opacity=".22" font-size="29" font-family="serif" letter-spacing="10">THE ASH PHYSICIANS</text></svg>
