<svg xmlns="http://www.w3.org/2000/svg" viewBox="0 0 1600 900">
<defs>
 <linearGradient id="bg" x1="0" y1="0" x2="0" y2="1"><stop stop-color="#090b0e"/><stop offset=".56" stop-color="#120e15"/><stop offset="1" stop-color="#050608"/></linearGradient>
 <radialGradient id="glow"><stop stop-color="#8a6c86" stop-opacity=".35"/><stop offset="1" stop-color="#8a6c86" stop-opacity="0"/></radialGradient>
 <linearGradient id="floor" x1="0" y1="0" x2="0" y2="1"><stop stop-color="#242529"/><stop offset="1" stop-color="#090a0c"/></linearGradient>
 <filter id="blur"><feGaussianBlur stdDeviation="16"/></filter>
</defs>
<rect width="1600" height="900" fill="url(#bg)"/>
<ellipse cx="800" cy="470" rx="650" ry="330" fill="url(#glow)"/>
<path d="M0 680 L800 545 L1600 680 L1600 900 L0 900 Z" fill="url(#floor)" opacity=".9"/>
<g stroke="#5c5a54" stroke-opacity=".28" fill="none" stroke-width="3">
 <path d="M0 680 L800 545 L1600 680"/><path d="M150 900 L800 545 L1450 900"/><path d="M430 900 L800 545 L1170 900"/>
</g>
<path d="M610 650 V240 h380 v410" fill="#0c0a0f" stroke="#665167" stroke-width="8"/><ellipse cx="800" cy="430" rx="140" ry="210" fill="#17121b" stroke="#9c79a0" stroke-width="6"/><g fill="#a886aa" opacity=".5"><text x="250" y="350" font-size="52">ϟ ∴ ⌁ Ϟ</text><text x="1090" y="520" font-size="48">⌬ ∵ ϟ</text></g><rect x="420" y="630" width="260" height="70" fill="#221a25" stroke="#665167"/>
<g opacity=".24" filter="url(#blur)"><ellipse cx="280" cy="710" rx="280" ry="55" fill="#ccd6ce"/><ellipse cx="1280" cy="740" rx="320" ry="65" fill="#ccd6ce"/></g>
<text x="70" y="90" fill="#bdb29b" opacity=".23" font-size="30" font-family="serif" letter-spacing="10">CHAMBER OF TRUE NAMES</text>
</svg>