<svg xmlns="http://www.w3.org/2000/svg" width="420" height="620" viewBox="0 0 420 620"><defs><linearGradient id="bg" x1="0" y1="0" x2="0" y2="1"><stop stop-color="#0b1517"/><stop offset="1" stop-color="#030507"/></linearGradient><radialGradient id="halo"><stop stop-color="#77aeb7" stop-opacity=".28"/><stop offset="1" stop-color="#77aeb7" stop-opacity="0"/></radialGradient></defs><rect width="420" height="620" fill="url(#bg)"/><circle cx="210" cy="235" r="180" fill="url(#halo)"/><ellipse cx="210" cy="545" rx="150" ry="32" fill="#000" opacity=".55"/><path d="M111 526 L144 310 L173 277 L156 178 L211 105 L268 179 L247 276 L281 314 L313 526Z" fill="#1b3337" stroke="#071011" stroke-width="7"/><path d="M211 105 L202 281 L156 178M211 105 L229 277 L268 179M144 310 L202 281 L247 276 L281 314" stroke="#75b9c1" stroke-width="4" opacity=".72"/><path d="M183 206 l27 -23 27 23 -27 28z" fill="#a7e0df" opacity=".62"/><path d="M136 351 l-63 98M284 351 l64 99" stroke="#23464b" stroke-width="18"/><path d="M172 505 l-18 55M251 505 l17 55" stroke="#23464b" stroke-width="20"/><g fill="#bce7e5" opacity=".55"><path d="M87 424l-22 35 38-6z"/><path d="M330 421l28 38-40-7z"/></g><text x="210" y="588" fill="#d5ccbc" text-anchor="middle" font-family="serif" font-size="19" letter-spacing="2">镜 砂 行 尸</text><text x="210" y="609" fill="#77aeb7" opacity=".75" text-anchor="middle" font-family="sans-serif" font-size="9" letter-spacing="3">GLASS WALKER</text><rect x="14" y="14" width="392" height="592" fill="none" stroke="#77aeb7" stroke-opacity=".2"/></svg>