<svg xmlns="http://www.w3.org/2000/svg" width="420" height="620" viewBox="0 0 420 620">
<defs>
 <linearGradient id="bg" x1="0" y1="0" x2="0" y2="1"><stop stop-color="#10151b"/><stop offset="1" stop-color="#05070a"/></linearGradient>
 <radialGradient id="halo"><stop stop-color="#7f8b91" stop-opacity=".34"/><stop offset="1" stop-color="#7f8b91" stop-opacity="0"/></radialGradient>
 <linearGradient id="metal" x1="0" x2="1"><stop stop-color="#202832"/><stop offset=".45" stop-color="#79808a"/><stop offset=".55" stop-color="#313945"/><stop offset="1" stop-color="#10151b"/></linearGradient>
 <filter id="blur"><feGaussianBlur stdDeviation="10"/></filter>
 <filter id="soft"><feGaussianBlur stdDeviation="2"/></filter>
</defs>
<rect width="100%" height="100%" fill="url(#bg)"/>
<circle cx="210" cy="190" r="170" fill="url(#halo)"/>
<path d="M0 525 C85 486 154 518 212 500 C292 475 342 500 420 468 V620 H0Z" fill="#030507"/>

<ellipse cx="210" cy="550" rx="145" ry="38" fill="#000" opacity=".55"/>
<path d="M82 563 C92 425 125 337 172 309 L248 309 C302 342 334 429 342 563Z" fill="#242426" stroke="#000" stroke-width="6"/>
<path d="M164 314 C168 345 252 345 256 314 L246 282 H174Z" fill="#918176" opacity=".95"/>
<ellipse cx="210" cy="230" rx="78" ry="96" fill="#918176" stroke="#08090b" stroke-width="7"/>
<path d="M133 229 C132 112 166 91 215 92 C274 93 294 129 285 219 C267 169 235 146 188 150 C165 152 145 181 133 229Z" fill="#3b3836"/>
<path d="M161 227 Q180 216 194 229M226 229 Q242 216 259 227" stroke="#17191d" stroke-width="7" stroke-linecap="round" fill="none"/>
<circle cx="178" cy="229" r="4" fill="#7f8b91"/><circle cx="242" cy="229" r="4" fill="#7f8b91"/>
<path d="M188 275 Q210 288 234 274" stroke="#342b29" stroke-width="4" fill="none"/>
<path d="M102 439 Q210 392 320 439" fill="none" stroke="#7f8b91" stroke-opacity=".38" stroke-width="3"/>
<path d="M114 184 L126 483M296 174 L286 484" stroke="#676b70" stroke-width="10" opacity=".7"/><g fill="#474c52" stroke="#171a1d" stroke-width="3"><ellipse cx="121" cy="351" rx="15" ry="11"/><ellipse cx="290" cy="352" rx="15" ry="11"/></g><path d="M109 465 Q210 500 306 465" stroke="#656b71" stroke-width="8" fill="none"/>
<text x="210" y="586" fill="#d8d0c1" text-anchor="middle" font-family="serif" font-size="21" letter-spacing="2">无 名 囚 徒</text>
<text x="210" y="608" fill="#8d887f" text-anchor="middle" font-family="sans-serif" font-size="11" letter-spacing="3">THE ERASED</text>

<rect x="14" y="14" width="392" height="592" fill="none" stroke="#7f8b91" stroke-opacity=".23"/>
<path d="M32 46H108M312 46H388M32 574H108M312 574H388" stroke="#7f8b91" stroke-opacity=".55" stroke-width="2"/>
</svg>